<svg id="visual" viewBox="0 0 900 600" width="900" height="600" xmlns="http://www.w3.org/2000/svg" xmlns:xlink="http://www.w3.org/1999/xlink" version="1.1"><path d="M0 392L25 410.7C50 429.3 100 466.7 150 476.3C200 486 250 468 300 455.8C350 443.7 400 437.3 450 448.3C500 459.3 550 487.7 600 497.2C650 506.7 700 497.3 750 494C800 490.7 850 493.3 875 494.7L900 496L900 601L875 601C850 601 800 601 750 601C700 601 650 601 600 601C550 601 500 601 450 601C400 601 350 601 300 601C250 601 200 601 150 601C100 601 50 601 25 601L0 601Z" fill="#56219c" stroke-linecap="round" stroke-linejoin="miter"></path></svg>