<svg id="visual" viewBox="0 0 900 450" width="900" height="450" xmlns="http://www.w3.org/2000/svg" xmlns:xlink="http://www.w3.org/1999/xlink" version="1.1"><path d="M0 215L21.5 198C43 181 86 147 128.8 127.2C171.7 107.3 214.3 101.7 257.2 118C300 134.3 343 172.7 385.8 188.2C428.7 203.7 471.3 196.3 514.2 196.5C557 196.7 600 204.3 642.8 202.8C685.7 201.3 728.3 190.7 771.2 179.8C814 169 857 158 878.5 152.5L900 147L900 451L878.5 451C857 451 814 451 771.2 451C728.3 451 685.7 451 642.8 451C600 451 557 451 514.2 451C471.3 451 428.7 451 385.8 451C343 451 300 451 257.2 451C214.3 451 171.7 451 128.8 451C86 451 43 451 21.5 451L0 451Z" fill="#6b36b1"></path><path d="M0 251L21.5 246.8C43 242.7 86 234.3 128.8 233.5C171.7 232.7 214.3 239.3 257.2 227C300 214.7 343 183.3 385.8 184.2C428.7 185 471.3 218 514.2 228.2C557 238.3 600 225.7 642.8 222C685.7 218.3 728.3 223.7 771.2 232.8C814 242 857 255 878.5 261.5L900 268L900 451L878.5 451C857 451 814 451 771.2 451C728.3 451 685.7 451 642.8 451C600 451 557 451 514.2 451C471.3 451 428.7 451 385.8 451C343 451 300 451 257.2 451C214.3 451 171.7 451 128.8 451C86 451 43 451 21.5 451L0 451Z" fill="#5f2da0"></path><path d="M0 210L21.5 222.5C43 235 86 260 128.8 265.5C171.7 271 214.3 257 257.2 255C300 253 343 263 385.8 269.5C428.7 276 471.3 279 514.2 276.5C557 274 600 266 642.8 262.2C685.7 258.3 728.3 258.7 771.2 254.7C814 250.7 857 242.3 878.5 238.2L900 234L900 451L878.5 451C857 451 814 451 771.2 451C728.3 451 685.7 451 642.8 451C600 451 557 451 514.2 451C471.3 451 428.7 451 385.8 451C343 451 300 451 257.2 451C214.3 451 171.7 451 128.8 451C86 451 43 451 21.5 451L0 451Z" fill="#53258f"></path><path d="M0 341L21.5 330C43 319 86 297 128.8 293.2C171.7 289.3 214.3 303.7 257.2 314.3C300 325 343 332 385.8 331.8C428.7 331.7 471.3 324.3 514.2 317.3C557 310.3 600 303.7 642.8 310C685.7 316.3 728.3 335.7 771.2 341.5C814 347.3 857 339.7 878.5 335.8L900 332L900 451L878.5 451C857 451 814 451 771.2 451C728.3 451 685.7 451 642.8 451C600 451 557 451 514.2 451C471.3 451 428.7 451 385.8 451C343 451 300 451 257.2 451C214.3 451 171.7 451 128.8 451C86 451 43 451 21.5 451L0 451Z" fill="#471d7f"></path><path d="M0 367L21.5 370.3C43 373.7 86 380.3 128.8 384.7C171.7 389 214.3 391 257.2 389.2C300 387.3 343 381.7 385.8 377.5C428.7 373.3 471.3 370.7 514.2 374.5C557 378.3 600 388.7 642.8 388.7C685.7 388.7 728.3 378.3 771.2 373C814 367.7 857 367.3 878.5 367.2L900 367L900 451L878.5 451C857 451 814 451 771.2 451C728.3 451 685.7 451 642.8 451C600 451 557 451 514.2 451C471.3 451 428.7 451 385.8 451C343 451 300 451 257.2 451C214.3 451 171.7 451 128.8 451C86 451 43 451 21.5 451L0 451Z" fill="#3c156f"></path></svg>